HIERARCHY
ROOT Hips
{
 OFFSET 0.000000 0.000000 0.000000
 CHANNELS 6 Xposition Yposition Zposition Yrotation Xrotation Zrotation
 JOINT Chest
 {
  OFFSET 0.000000 9.588913 -0.003946
  CHANNELS 3 Yrotation Xrotation Zrotation
  JOINT Chest2
  {
   OFFSET 0.000000 9.541882 0.008053
   CHANNELS 3 Yrotation Xrotation Zrotation
   JOINT Chest3
   {
    OFFSET 0.000000 9.501360 0.000000
    CHANNELS 3 Yrotation Xrotation Zrotation
    JOINT Chest4
    {
     OFFSET 0.000000 9.491660 0.000000
     CHANNELS 3 Yrotation Xrotation Zrotation
     JOINT Neck
     {
      OFFSET 0.000000 14.331917 0.000000
      CHANNELS 3 Yrotation Xrotation Zrotation
      JOINT Head
      {
       OFFSET 0.000000 8.884799 0.017034
       CHANNELS 3 Yrotation Xrotation Zrotation
       End Site
       {
        OFFSET 0.000000 16.896195 0.008993
       }
      }
     }
     JOINT RightCollar
     {
      OFFSET -2.923010 9.499495 0.000000
      CHANNELS 3 Yrotation Xrotation Zrotation
      JOINT RightShoulder
      {
       OFFSET -13.795216 0.000000 0.000000
       CHANNELS 3 Yrotation Xrotation Zrotation
       JOINT RightElbow
       {
        OFFSET -30.272209 0.000000 0.000000
        CHANNELS 3 Yrotation Xrotation Zrotation
        JOINT RightWrist
        {
         OFFSET -24.478199 0.000000 0.000000
         CHANNELS 3 Yrotation Xrotation Zrotation
         End Site
         {
          OFFSET -18.090752 0.000000 0.000000
         }
        }
       }
      }
     }
     JOINT LeftCollar
     {
      OFFSET 2.923010 9.499495 0.000000
      CHANNELS 3 Yrotation Xrotation Zrotation
      JOINT LeftShoulder
      {
       OFFSET 13.795216 0.000000 0.000000
       CHANNELS 3 Yrotation Xrotation Zrotation
       JOINT LeftElbow
       {
        OFFSET 30.272209 0.000000 0.000000
        CHANNELS 3 Yrotation Xrotation Zrotation
        JOINT LeftWrist
        {
         OFFSET 24.478199 0.000000 0.000000
         CHANNELS 3 Yrotation Xrotation Zrotation
         End Site
         {
          OFFSET 18.090752 0.000000 0.000000
         }
        }
       }
      }
     }
    }
   }
  }
 }
 JOINT RightHip
 {
  OFFSET -7.826875 0.019532 0.001973
  CHANNELS 3 Yrotation Xrotation Zrotation
  JOINT RightKnee
  {
   OFFSET 0.000000 -40.546152 -0.001885
   CHANNELS 3 Yrotation Xrotation Zrotation
   JOINT RightAnkle
   {
    OFFSET 0.000000 -39.417092 -0.003189
    CHANNELS 3 Yrotation Xrotation Zrotation
    JOINT RightToe
    {
     OFFSET 0.000000 -7.579396 17.243563
     CHANNELS 3 Yrotation Xrotation Zrotation
     End Site
     {
      OFFSET 0.000000 -1.500329 6.694466
     }
    }
   }
  }
 }
 JOINT LeftHip
 {
  OFFSET 7.826875 0.019532 0.001973
  CHANNELS 3 Yrotation Xrotation Zrotation
  JOINT LeftKnee
  {
   OFFSET 0.000000 -40.546152 -0.001885
   CHANNELS 3 Yrotation Xrotation Zrotation
   JOINT LeftAnkle
   {
    OFFSET 0.000000 -39.417092 -0.003189
    CHANNELS 3 Yrotation Xrotation Zrotation
    JOINT LeftToe
    {
     OFFSET 0.000000 -7.579396 17.243563
     CHANNELS 3 Yrotation Xrotation Zrotation
     End Site
     {
      OFFSET 0.000000 -1.500329 6.694466
     }
    }
   }
  }
 }
}
MOTION
Frames: 5
Frame Time: 0.008333
28.291795 88.119407 8.299301 44.757145 -1.934539 2.415840 -0.942942 7.201810 1.382798 -0.576048 4.112713 0.763236 -0.711928 5.142047 0.948173 -0.576048 4.112714 0.763236 -3.106097 27.789779 -4.431057 -2.421653 5.019094 -4.185274 4.132718 -0.486592 -4.778806 -4.186488 -13.421594 77.353700 80.442525 16.228710 7.815064 -16.134160 3.216675 -12.863295 1.106952 -1.349578 -3.240234 11.688865 -7.192591 -77.091978 -90.175934 -1.672865 -34.548013 2.707566 12.379745 17.710615 -8.642001 -2.993452 -13.466555 -1.466201 2.592788 -0.802188 -5.611297 0.866361 9.581523 -0.041844 0.141980 -0.020446 12.223208 -2.603075 4.881344 5.042854 -1.106078 0.135066 -3.927026 4.720639 -7.115293 0.010892 -0.087599 -0.011895
28.271244 88.120291 8.326335 44.671964 -1.933705 2.416176 -0.949125 7.202240 1.390441 -0.580143 4.112888 0.765563 -0.717023 5.142278 0.951037 -0.580143 4.112889 0.765563 -3.195125 27.792839 -4.425730 -2.521398 5.024517 -4.159522 4.116449 -0.486275 -4.787467 -4.165635 -13.431437 77.346877 80.455330 16.222509 7.829451 -16.119754 3.219678 -12.867545 1.085825 -1.330563 -3.260712 11.728314 -7.173973 -77.113710 -90.107034 -1.735604 -34.543302 2.770373 12.354410 17.661077 -8.599253 -3.002704 -13.443232 -1.441711 2.594032 -0.795664 -5.604552 0.859095 9.560138 -0.043823 0.147101 -0.024577 12.242628 -2.595259 4.907792 5.079905 -1.093244 0.148908 -3.905002 4.714008 -7.143557 0.010330 -0.090210 -0.012666
28.250318 88.121050 8.353272 44.591298 -1.931853 2.414659 -0.954415 7.203098 1.398088 -0.583763 4.113066 0.768522 -0.721518 5.142511 0.954697 -0.583763 4.113066 0.768522 -3.283370 27.794945 -4.417806 -2.620862 5.028697 -4.131056 4.097670 -0.487767 -4.797041 -4.154703 -13.438814 77.344421 80.468892 16.217376 7.850534 -16.098404 3.216567 -12.883001 1.060149 -1.319703 -3.279473 11.773628 -7.157119 -77.137683 -90.041804 -1.793410 -34.547632 2.842837 12.332920 17.611224 -8.563374 -3.014052 -13.419467 -1.417139 2.597278 -0.788206 -5.589091 0.849655 9.539314 -0.045184 0.151900 -0.027753 12.267247 -2.590326 4.934387 5.112923 -1.080490 0.162825 -3.885259 4.706935 -7.170387 0.009343 -0.091939 -0.013761
28.229498 88.121740 8.379730 44.513434 -1.930040 2.413621 -0.960921 7.204671 1.405044 -0.587783 4.113577 0.771334 -0.726513 5.143163 0.958168 -0.587783 4.113578 0.771334 -3.369356 27.794940 -4.409053 -2.718001 5.030185 -4.102145 4.078324 -0.489924 -4.806315 -4.142855 -13.450034 77.343933 80.475939 16.215729 7.871509 -16.069092 3.209273 -12.901338 1.036740 -1.315788 -3.299024 11.816855 -7.140084 -77.162105 -89.998077 -1.828422 -34.550556 2.922767 12.324017 17.567160 -8.531156 -3.028328 -13.396488 -1.393303 2.605774 -0.779200 -5.573770 0.836432 9.515989 -0.046059 0.157697 -0.029355 12.295305 -2.585307 4.960643 5.134063 -1.069645 0.176169 -3.862439 4.701356 -7.197451 0.007568 -0.094321 -0.014813
28.209075 88.122428 8.405529 44.438132 -1.929540 2.414162 -0.969123 7.206913 1.411134 -0.592322 4.114696 0.773775 -0.732161 5.144575 0.961169 -0.592322 4.114696 0.773775 -3.453259 27.792678 -4.399850 -2.812919 5.028811 -4.073170 4.059587 -0.493599 -4.814869 -4.127607 -13.465914 77.346044 80.476366 16.221686 7.891749 -16.039201 3.202224 -12.918540 1.018200 -1.316431 -3.321326 11.850557 -7.123119 -77.184367 -89.983527 -1.831831 -34.546058 2.998825 12.328464 17.535543 -8.501544 -3.043635 -13.375876 -1.374380 2.618291 -0.768555 -5.555475 0.819843 9.490191 -0.046433 0.164384 -0.029691 12.324055 -2.577305 4.984268 5.141275 -1.063246 0.191023 -3.829824 4.699707 -7.225170 0.005867 -0.097919 -0.015790
